<svg width="3926" height="699" viewBox="0 0 3926 699" fill="none" xmlns="http://www.w3.org/2000/svg">
<path d="M446.021 259.419L0.232422 2V143.546L75.6447 187.089V132.635L297.091 260.508L223.627 304.374L223.091 304.076L148.192 348.748L148.771 349.07L75.6447 392.734V308.461L117.64 331.782L192.539 287.109L109.541 241.018L109.307 241.424L85.0404 227.412L75.6447 222.194V221.987L0.232422 178.444V523.484L107.736 461.411L215.251 397.213L215.048 396.872L350.859 315.869L351.023 316.144L446.021 259.419Z" fill="#FF0000"/>
<path d="M330.046 363.471L255.148 408.144L296.257 430.973L75.6447 563.786V514.839L0.232422 558.382V697.215L446.855 428.339L330.046 363.471Z" fill="#FF0000"/>
<path d="M570.359 484.562V135.04H838.326C850.624 135.04 861.789 138.114 871.822 144.263C882.178 150.412 890.43 158.665 896.579 169.021C902.728 179.054 905.803 190.219 905.803 202.517V270.965C905.803 275.172 905.479 279.218 904.832 283.101C904.185 286.985 903.052 290.707 901.434 294.266C906.936 301.71 911.305 309.477 914.541 317.568C918.101 325.659 919.881 333.75 919.881 341.84V417.084C919.881 429.382 916.806 440.71 910.657 451.066C904.508 461.098 896.256 469.189 885.9 475.338C875.543 481.487 864.216 484.562 851.918 484.562H570.359ZM640.264 419.997H849.006C850.624 419.997 852.08 419.512 853.375 418.541C854.669 417.246 855.316 415.79 855.316 414.172V344.753C855.316 343.135 854.669 341.84 853.375 340.869C852.08 339.575 850.624 338.928 849.006 338.928H640.264C638.646 338.928 637.189 339.575 635.895 340.869C634.924 341.84 634.438 343.135 634.438 344.753V414.172C634.438 415.79 634.924 417.246 635.895 418.541C637.189 419.512 638.646 419.997 640.264 419.997ZM640.264 274.363H835.413C837.031 274.363 838.326 273.878 839.297 272.907C840.268 271.612 840.753 270.156 840.753 268.538V205.43C840.753 203.812 840.268 202.517 839.297 201.546C838.326 200.252 837.031 199.604 835.413 199.604H640.264C638.646 199.604 637.189 200.252 635.895 201.546C634.924 202.517 634.438 203.812 634.438 205.43V268.538C634.438 270.156 634.924 271.612 635.895 272.907C637.189 273.878 638.646 274.363 640.264 274.363Z" fill="black"/>
<path d="M1037.86 484.562C1025.56 484.562 1014.23 481.487 1003.88 475.338C993.846 469.189 985.755 461.098 979.606 451.066C973.781 441.033 970.868 429.868 970.868 417.57V311.743H1193.2V272.421C1193.2 270.803 1192.56 269.509 1191.26 268.538C1190.29 267.243 1189 266.596 1187.38 266.596H970.868V203.003H1189.8C1202.1 203.003 1213.27 206.077 1223.3 212.226C1233.66 218.375 1241.75 226.466 1247.57 236.498C1253.72 246.531 1256.8 257.696 1256.8 269.994V484.562H1037.86ZM1040.29 420.968H1193.2V369.025H1034.46V415.143C1034.46 416.761 1034.95 418.217 1035.92 419.512C1037.21 420.483 1038.67 420.968 1040.29 420.968Z" fill="black"/>
<path d="M1307.93 484.562V203.003H1371.52V484.562H1307.93ZM1307.93 174.847V110.768H1371.52V174.847H1307.93Z" fill="black"/>
<path d="M1492.49 484.562C1480.19 484.562 1469.03 481.487 1459 475.338C1448.96 469.189 1440.87 461.098 1434.72 451.066C1428.57 441.033 1425.5 429.868 1425.5 417.57V110.282H1489.58V415.143C1489.58 416.761 1490.06 418.217 1491.04 419.512C1492.33 420.483 1493.79 420.968 1495.4 420.968H1549.29V484.562H1492.49Z" fill="black"/>
<path d="M1651.77 484.562C1639.47 484.562 1628.3 481.487 1618.27 475.338C1608.24 469.189 1600.15 461.098 1594 451.066C1587.85 441.033 1584.78 429.868 1584.78 417.57V269.994C1584.78 257.696 1587.85 246.531 1594 236.498C1600.15 226.466 1608.24 218.375 1618.27 212.226C1628.3 206.077 1639.47 203.003 1651.77 203.003H1803.71C1816.01 203.003 1827.18 206.077 1837.21 212.226C1847.56 218.375 1855.65 226.466 1861.48 236.498C1867.63 246.531 1870.7 257.696 1870.7 269.994V375.822H1648.37V415.143C1648.37 416.761 1648.85 418.217 1649.83 419.512C1651.12 420.483 1652.58 420.968 1654.19 420.968H1870.7V484.562H1651.77ZM1648.37 318.539H1807.11V272.421C1807.11 270.803 1806.46 269.509 1805.17 268.538C1804.2 267.243 1802.9 266.596 1801.28 266.596H1654.19C1652.58 266.596 1651.12 267.243 1649.83 268.538C1648.85 269.509 1648.37 270.803 1648.37 272.421V318.539Z" fill="black"/>
<path d="M1960.29 588.933V524.854H2129.71C2131.33 524.854 2132.62 524.206 2133.6 522.912C2134.89 521.941 2135.54 520.646 2135.54 519.028V484.562H1980.19C1968.22 484.562 1957.06 481.487 1946.7 475.338C1936.67 469.189 1928.58 461.098 1922.43 451.066C1916.28 441.033 1913.2 429.868 1913.2 417.57V203.973H1976.8V415.143C1976.8 416.761 1977.28 418.217 1978.25 419.512C1979.55 420.483 1981 420.968 1982.62 420.968H2129.71C2131.33 420.968 2132.62 420.483 2133.6 419.512C2134.89 418.217 2135.54 416.761 2135.54 415.143V203.973H2199.13V521.941C2199.13 534.239 2196.22 545.404 2190.39 555.437C2184.57 565.793 2176.48 573.884 2166.12 579.709C2156.09 585.858 2144.92 588.933 2132.62 588.933H1960.29Z" fill="black"/>
<path d="M1308.18 111.036V176.936H1372.39V111.036H1308.18Z" fill="#FF0000"/>
<path d="M2308.87 695.115L2308.87 4.09908" stroke="black" stroke-width="7.18043" stroke-linecap="round"/>
<path d="M2482.61 316.477C2469.82 316.477 2459.62 313.331 2452.01 307.039C2444.5 300.748 2440.08 291.766 2438.76 280.096H2450.94C2452.06 288.519 2455.26 294.861 2460.53 299.124C2465.81 303.386 2473.12 305.517 2482.45 305.517C2490.37 305.517 2496.31 304.046 2500.26 301.103C2504.32 298.058 2506.35 293.644 2506.35 287.859C2506.35 282.886 2504.98 278.929 2502.24 275.986C2499.5 273.043 2495.24 270.607 2489.46 268.679L2471.04 262.285C2461.7 259.038 2454.8 255.131 2450.33 250.564C2445.87 245.896 2443.64 240.01 2443.64 232.906C2443.64 227.02 2445.11 221.946 2448.05 217.683C2450.99 213.319 2455.15 209.92 2460.53 207.484C2465.91 205.049 2472.15 203.831 2479.26 203.831C2490.22 203.831 2498.99 206.723 2505.59 212.508C2512.19 218.191 2515.99 226.309 2517.01 236.864H2504.83C2503.51 229.252 2500.77 223.671 2496.61 220.119C2492.55 216.567 2486.66 214.791 2478.95 214.791C2471.65 214.791 2465.96 216.263 2461.9 219.206C2457.84 222.149 2455.81 226.309 2455.81 231.688C2455.81 236.255 2457.23 239.908 2460.08 242.648C2462.92 245.388 2467.33 247.773 2473.32 249.803L2492.96 256.653C2501.48 259.596 2507.87 263.605 2512.14 268.679C2516.4 273.651 2518.53 279.994 2518.53 287.707C2518.53 296.84 2515.38 303.944 2509.09 309.018C2502.9 313.991 2494.07 316.477 2482.61 316.477ZM2584.51 315.107C2584.11 313.382 2583.8 311.403 2583.6 309.171C2583.5 306.938 2583.45 304.096 2583.45 300.646H2582.69V263.503C2582.69 257.617 2581.32 253.304 2578.58 250.564C2575.94 247.722 2571.62 246.302 2565.64 246.302C2559.75 246.302 2555.03 247.519 2551.48 249.955C2548.03 252.289 2546.1 255.638 2545.69 260.002H2533.97C2534.48 252.492 2537.63 246.606 2543.41 242.344C2549.2 238.081 2556.76 235.95 2566.09 235.95C2575.73 235.95 2582.89 238.234 2587.56 242.8C2592.22 247.367 2594.56 254.217 2594.56 263.351V300.646C2594.56 302.879 2594.71 305.213 2595.02 307.648C2595.32 309.983 2595.73 312.469 2596.23 315.107H2584.51ZM2557.87 316.63C2549.86 316.63 2543.46 314.701 2538.69 310.845C2534.02 306.887 2531.69 301.509 2531.69 294.709C2531.69 287.91 2534.02 282.633 2538.69 278.878C2543.36 275.123 2550.16 272.484 2559.09 270.962L2586.19 266.395V276.442L2560.92 280.4C2555.23 281.313 2550.92 282.836 2547.98 284.967C2545.03 287.098 2543.56 290.193 2543.56 294.253C2543.56 298.21 2544.88 301.204 2547.52 303.234C2550.26 305.264 2554.27 306.278 2559.55 306.278C2566.35 306.278 2571.88 304.756 2576.14 301.712C2580.5 298.566 2582.69 294.506 2582.69 289.534L2584.66 300.342C2583.04 305.517 2579.84 309.526 2575.07 312.367C2570.41 315.209 2564.67 316.63 2557.87 316.63ZM2622.49 315.107V226.512C2622.49 219.409 2624.52 213.878 2628.58 209.92C2632.74 205.962 2639.04 203.983 2647.46 203.983C2649.49 203.983 2651.06 204.085 2652.18 204.287C2653.39 204.49 2654.41 204.744 2655.22 205.049V214.639C2654.51 214.436 2653.5 214.233 2652.18 214.03C2650.96 213.827 2649.64 213.725 2648.22 213.725C2643.55 213.725 2640.1 214.892 2637.87 217.227C2635.74 219.561 2634.67 222.859 2634.67 227.121V315.107H2622.49ZM2606.51 247.824V237.473H2653.55V247.824H2606.51ZM2698.76 316.63C2691.35 316.63 2684.8 314.904 2679.12 311.454C2673.44 307.902 2668.97 303.082 2665.72 296.993C2662.48 290.904 2660.85 283.901 2660.85 275.986C2660.85 268.07 2662.42 261.118 2665.57 255.131C2668.82 249.042 2673.33 244.323 2679.12 240.974C2684.9 237.625 2691.55 235.95 2699.06 235.95C2706.27 235.95 2712.51 237.523 2717.78 240.669C2723.16 243.815 2727.27 248.23 2730.11 253.913C2733.06 259.596 2734.53 266.294 2734.53 274.007C2734.53 275.021 2734.48 275.986 2734.38 276.899C2734.38 277.812 2734.27 278.827 2734.07 279.943H2669.99V269.744H2726.61L2722.66 275.377C2722.66 266.04 2720.57 258.886 2716.41 253.913C2712.35 248.839 2706.57 246.302 2699.06 246.302C2691.35 246.302 2685.11 248.991 2680.34 254.37C2675.67 259.647 2673.33 266.801 2673.33 275.833C2673.33 285.068 2675.67 292.477 2680.34 298.058C2685.11 303.538 2691.45 306.278 2699.36 306.278C2704.34 306.278 2708.7 305.213 2712.46 303.082C2716.21 300.849 2718.95 297.703 2720.68 293.644H2732.25C2729.71 300.748 2725.45 306.38 2719.46 310.541C2713.57 314.6 2706.67 316.63 2698.76 316.63ZM2783.03 316.477C2774.4 316.477 2768.11 314.549 2764.15 310.693C2760.29 306.735 2758.37 301.052 2758.37 293.644V219.358L2770.54 214.791V293.491C2770.54 297.855 2771.66 301.052 2773.89 303.082C2776.13 305.111 2779.78 306.126 2784.85 306.126C2786.88 306.126 2788.61 306.025 2790.03 305.822C2791.55 305.517 2792.77 305.162 2793.68 304.756V315.107C2792.67 315.513 2791.2 315.818 2789.27 316.021C2787.44 316.325 2785.36 316.477 2783.03 316.477ZM2742.38 247.824V237.473H2793.68V247.824H2742.38ZM2817.69 346.314L2835.04 305.974L2837.78 301.712L2863.2 237.473H2875.69L2830.63 346.314H2817.69ZM2836.41 315.869L2801.55 237.473H2814.95L2844.94 307.648L2836.41 315.869ZM2922.06 315.107V205.505H2934.54V315.107H2922.06ZM2928.45 315.107V304.147H2995.43V315.107H2928.45ZM2928.45 263.503V252.543H2989.95V263.503H2928.45ZM2928.45 216.465V205.505H2994.21V216.465H2928.45ZM3018.22 315.107V237.473H3029.64V255.74H3030.4V315.107H3018.22ZM3073.78 315.107V264.264C3073.78 258.378 3072.31 253.964 3069.37 251.021C3066.42 248.078 3062.06 246.606 3056.27 246.606C3051.2 246.606 3046.68 247.722 3042.73 249.955C3038.87 252.188 3035.83 255.283 3033.59 259.241C3031.46 263.199 3030.4 267.816 3030.4 273.093L3028.42 254.674C3031.06 248.889 3035.06 244.323 3040.44 240.974C3045.92 237.625 3052.11 235.95 3059.01 235.95C3067.13 235.95 3073.63 238.284 3078.5 242.953C3083.47 247.519 3085.96 253.558 3085.96 261.067V315.107H3073.78ZM3140.25 347.836C3131.01 347.836 3123.3 345.654 3117.11 341.29C3111.02 337.028 3107.32 331.345 3106 324.241H3117.57C3118.68 328.3 3121.17 331.497 3125.02 333.831C3128.98 336.267 3134.31 337.485 3141.01 337.485C3148.92 337.485 3154.91 335.303 3158.97 330.939C3163.03 326.677 3165.06 320.385 3165.06 312.063V295.47L3166.58 295.775C3164.86 301.661 3161.41 306.38 3156.23 309.932C3151.05 313.382 3144.92 315.107 3137.81 315.107C3131.01 315.107 3125.02 313.484 3119.85 310.236C3114.67 306.887 3110.66 302.27 3107.82 296.384C3104.98 290.498 3103.56 283.648 3103.56 275.833C3103.56 267.918 3105.03 260.966 3107.98 254.978C3110.92 248.991 3115.03 244.373 3120.31 241.126C3125.68 237.777 3131.93 236.103 3139.03 236.103C3146.34 236.103 3152.42 237.878 3157.3 241.43C3162.27 244.982 3165.57 250.057 3167.19 256.653L3165.82 256.805V237.473H3177.24V312.063C3177.24 323.125 3173.94 331.852 3167.34 338.246C3160.75 344.639 3151.71 347.836 3140.25 347.836ZM3140.86 304.604C3148.47 304.604 3154.51 301.965 3158.97 296.688C3163.44 291.411 3165.67 284.256 3165.67 275.224C3165.67 266.395 3163.44 259.444 3158.97 254.37C3154.51 249.194 3148.47 246.606 3140.86 246.606C3133.14 246.606 3127.05 249.194 3122.59 254.37C3118.22 259.545 3116.04 266.649 3116.04 275.681C3116.04 284.51 3118.28 291.563 3122.74 296.84C3127.21 302.016 3133.24 304.604 3140.86 304.604ZM3201.66 315.107V237.473H3213.84V315.107H3201.66ZM3200.75 219.814V205.505H3214.75V219.814H3200.75ZM3238.23 315.107V237.473H3249.65V255.74H3250.41V315.107H3238.23ZM3293.79 315.107V264.264C3293.79 258.378 3292.32 253.964 3289.38 251.021C3286.44 248.078 3282.07 246.606 3276.29 246.606C3271.21 246.606 3266.7 247.722 3262.74 249.955C3258.88 252.188 3255.84 255.283 3253.61 259.241C3251.47 263.199 3250.41 267.816 3250.41 273.093L3248.43 254.674C3251.07 248.889 3255.08 244.323 3260.46 240.974C3265.94 237.625 3272.13 235.95 3279.03 235.95C3287.15 235.95 3293.64 238.284 3298.51 242.953C3303.48 247.519 3305.97 253.558 3305.97 261.067V315.107H3293.79ZM3361.17 316.63C3353.76 316.63 3347.22 314.904 3341.54 311.454C3335.85 307.902 3331.39 303.082 3328.14 296.993C3324.89 290.904 3323.27 283.901 3323.27 275.986C3323.27 268.07 3324.84 261.118 3327.99 255.131C3331.24 249.042 3335.75 244.323 3341.54 240.974C3347.32 237.625 3353.97 235.95 3361.48 235.95C3368.68 235.95 3374.92 237.523 3380.2 240.669C3385.58 243.815 3389.69 248.23 3392.53 253.913C3395.47 259.596 3396.95 266.294 3396.95 274.007C3396.95 275.021 3396.9 275.986 3396.79 276.899C3396.79 277.812 3396.69 278.827 3396.49 279.943H3332.4V269.744H3389.03L3385.07 275.377C3385.07 266.04 3382.99 258.886 3378.83 253.913C3374.77 248.839 3368.99 246.302 3361.48 246.302C3353.76 246.302 3347.52 248.991 3342.75 254.37C3338.09 259.647 3335.75 266.801 3335.75 275.833C3335.75 285.068 3338.09 292.477 3342.75 298.058C3347.52 303.538 3353.87 306.278 3361.78 306.278C3366.75 306.278 3371.12 305.213 3374.87 303.082C3378.63 300.849 3381.37 297.703 3383.09 293.644H3394.66C3392.13 300.748 3387.86 306.38 3381.88 310.541C3375.99 314.6 3369.09 316.63 3361.17 316.63ZM3447.1 316.63C3439.69 316.63 3433.14 314.904 3427.46 311.454C3421.78 307.902 3417.31 303.082 3414.06 296.993C3410.82 290.904 3409.19 283.901 3409.19 275.986C3409.19 268.07 3410.77 261.118 3413.91 255.131C3417.16 249.042 3421.68 244.323 3427.46 240.974C3433.24 237.625 3439.89 235.95 3447.4 235.95C3454.61 235.95 3460.85 237.523 3466.13 240.669C3471.5 243.815 3475.61 248.23 3478.46 253.913C3481.4 259.596 3482.87 266.294 3482.87 274.007C3482.87 275.021 3482.82 275.986 3482.72 276.899C3482.72 277.812 3482.62 278.827 3482.41 279.943H3418.33V269.744H3474.95L3471 275.377C3471 266.04 3468.92 258.886 3464.76 253.913C3460.7 248.839 3454.91 246.302 3447.4 246.302C3439.69 246.302 3433.45 248.991 3428.68 254.37C3424.01 259.647 3421.68 266.801 3421.68 275.833C3421.68 285.068 3424.01 292.477 3428.68 298.058C3433.45 303.538 3439.79 306.278 3447.71 306.278C3452.68 306.278 3457.04 305.213 3460.8 303.082C3464.55 300.849 3467.29 297.703 3469.02 293.644H3480.59C3478.05 300.748 3473.79 306.38 3467.8 310.541C3461.91 314.6 3455.01 316.63 3447.1 316.63ZM3501.21 315.107V237.473H3512.62V257.262H3513.38V315.107H3501.21ZM3513.38 274.616L3511.41 256.196C3513.23 249.6 3516.48 244.576 3521.15 241.126C3525.82 237.676 3531.19 235.95 3537.28 235.95C3539.82 235.95 3541.55 236.153 3542.46 236.559V248.281C3541.95 248.078 3541.24 247.976 3540.33 247.976C3539.41 247.875 3538.3 247.824 3536.98 247.824C3529.27 247.824 3523.38 250.158 3519.32 254.826C3515.36 259.393 3513.38 265.989 3513.38 274.616ZM3587.43 316.63C3580.02 316.63 3573.48 314.904 3567.79 311.454C3562.11 307.902 3557.64 303.082 3554.4 296.993C3551.15 290.904 3549.53 283.901 3549.53 275.986C3549.53 268.07 3551.1 261.118 3554.24 255.131C3557.49 249.042 3562.01 244.323 3567.79 240.974C3573.58 237.625 3580.22 235.95 3587.73 235.95C3594.94 235.95 3601.18 237.523 3606.46 240.669C3611.84 243.815 3615.95 248.23 3618.79 253.913C3621.73 259.596 3623.2 266.294 3623.2 274.007C3623.2 275.021 3623.15 275.986 3623.05 276.899C3623.05 277.812 3622.95 278.827 3622.75 279.943H3558.66V269.744H3615.29L3611.33 275.377C3611.33 266.04 3609.25 258.886 3605.09 253.913C3601.03 248.839 3595.24 246.302 3587.73 246.302C3580.02 246.302 3573.78 248.991 3569.01 254.37C3564.34 259.647 3562.01 266.801 3562.01 275.833C3562.01 285.068 3564.34 292.477 3569.01 298.058C3573.78 303.538 3580.12 306.278 3588.04 306.278C3593.01 306.278 3597.38 305.213 3601.13 303.082C3604.88 300.849 3607.62 297.703 3609.35 293.644H3620.92C3618.38 300.748 3614.12 306.38 3608.13 310.541C3602.25 314.6 3595.35 316.63 3587.43 316.63ZM3698.01 315.107V296.993L3699.54 297.449C3697.61 303.335 3694.06 308.004 3688.88 311.454C3683.81 314.904 3677.72 316.63 3670.61 316.63C3663.61 316.63 3657.47 314.955 3652.19 311.606C3647.02 308.257 3642.96 303.589 3640.02 297.602C3637.17 291.614 3635.75 284.612 3635.75 276.594C3635.75 268.476 3637.23 261.372 3640.17 255.283C3643.11 249.194 3647.22 244.475 3652.5 241.126C3657.78 237.777 3663.97 236.103 3671.07 236.103C3678.38 236.103 3684.52 237.878 3689.49 241.43C3694.46 244.982 3697.86 250.006 3699.69 256.501L3697.25 256.805V205.505H3709.43V315.107H3698.01ZM3672.9 305.974C3680.71 305.974 3686.8 303.335 3691.16 298.058C3695.63 292.68 3697.86 285.373 3697.86 276.138C3697.86 267.106 3695.63 259.951 3691.16 254.674C3686.7 249.397 3680.61 246.758 3672.9 246.758C3665.18 246.758 3659.15 249.397 3654.78 254.674C3650.42 259.951 3648.24 267.258 3648.24 276.594C3648.24 285.728 3650.42 292.933 3654.78 298.21C3659.15 303.386 3665.18 305.974 3672.9 305.974ZM3733.4 337.028V330.787C3736.34 329.67 3738.47 327.894 3739.79 325.459C3741.11 323.125 3741.77 319.522 3741.77 314.651L3746.49 315.107H3733.4V299.58H3748.77V311.911C3748.77 318.406 3747.56 323.784 3745.12 328.047C3742.68 332.309 3738.78 335.303 3733.4 337.028ZM2445.46 493.107V383.505H2489C2496.81 383.505 2503.46 384.774 2508.94 387.311C2514.42 389.848 2518.58 393.501 2521.42 398.271C2524.37 403.041 2525.84 408.775 2525.84 415.473C2525.84 422.17 2524.37 427.955 2521.42 432.826C2518.58 437.596 2514.42 441.3 2508.94 443.939C2503.46 446.577 2496.81 447.897 2489 447.897H2454.6V436.936H2488.54C2496.66 436.936 2502.8 435.11 2506.96 431.456C2511.22 427.701 2513.35 422.373 2513.35 415.473C2513.35 408.572 2511.27 403.345 2507.11 399.793C2502.95 396.241 2496.76 394.465 2488.54 394.465H2457.94V493.107H2445.46ZM2571.65 494.63C2564.25 494.63 2557.7 492.904 2552.02 489.454C2546.33 485.902 2541.87 481.082 2538.62 474.993C2535.37 468.904 2533.75 461.901 2533.75 453.986C2533.75 446.07 2535.32 439.118 2538.47 433.131C2541.72 427.042 2546.23 422.323 2552.02 418.974C2557.8 415.625 2564.45 413.95 2571.96 413.95C2579.16 413.95 2585.4 415.523 2590.68 418.669C2596.06 421.815 2600.17 426.23 2603.01 431.913C2605.96 437.596 2607.43 444.294 2607.43 452.007C2607.43 453.021 2607.38 453.986 2607.27 454.899C2607.27 455.812 2607.17 456.827 2606.97 457.943H2542.88V447.744H2599.51L2595.55 453.377C2595.55 444.04 2593.47 436.886 2589.31 431.913C2585.25 426.839 2579.47 424.302 2571.96 424.302C2564.25 424.302 2558 426.991 2553.23 432.37C2548.57 437.647 2546.23 444.801 2546.23 453.833C2546.23 463.068 2548.57 470.477 2553.23 476.058C2558 481.538 2564.35 484.278 2572.26 484.278C2577.24 484.278 2581.6 483.213 2585.35 481.082C2589.11 478.849 2591.85 475.703 2593.57 471.644H2605.14C2602.61 478.748 2598.34 484.38 2592.36 488.541C2586.47 492.6 2579.57 494.63 2571.65 494.63ZM2625.76 493.107V415.473H2637.18V435.262H2637.94V493.107H2625.76ZM2637.94 452.616L2635.96 434.196C2637.79 427.6 2641.04 422.576 2645.7 419.126C2650.37 415.676 2655.75 413.95 2661.84 413.95C2664.38 413.95 2666.1 414.153 2667.02 414.559V426.281C2666.51 426.078 2665.8 425.976 2664.88 425.976C2663.97 425.875 2662.85 425.824 2661.54 425.824C2653.82 425.824 2647.94 428.158 2643.88 432.826C2639.92 437.393 2637.94 443.989 2637.94 452.616ZM2691.02 493.107V404.512C2691.02 397.409 2693.05 391.878 2697.11 387.92C2701.27 383.962 2707.57 381.983 2715.99 381.983C2718.02 381.983 2719.59 382.085 2720.71 382.287C2721.93 382.49 2722.94 382.744 2723.75 383.049V392.639C2723.04 392.436 2722.03 392.233 2720.71 392.03C2719.49 391.827 2718.17 391.725 2716.75 391.725C2712.08 391.725 2708.63 392.892 2706.4 395.227C2704.27 397.561 2703.2 400.859 2703.2 405.121V493.107H2691.02ZM2675.04 425.824V415.473H2722.08V425.824H2675.04ZM2767.74 494.63C2760.13 494.63 2753.43 492.854 2747.65 489.302C2741.87 485.75 2737.35 480.929 2734.1 474.84C2730.96 468.65 2729.38 461.698 2729.38 453.986C2729.38 446.171 2731.01 439.27 2734.25 433.283C2737.5 427.295 2741.97 422.576 2747.65 419.126C2753.43 415.676 2760.13 413.95 2767.74 413.95C2775.46 413.95 2782.15 415.676 2787.84 419.126C2793.62 422.576 2798.09 427.295 2801.23 433.283C2804.48 439.27 2806.1 446.171 2806.1 453.986C2806.1 461.698 2804.48 468.65 2801.23 474.84C2798.09 480.929 2793.62 485.75 2787.84 489.302C2782.15 492.854 2775.46 494.63 2767.74 494.63ZM2767.74 484.278C2773.02 484.278 2777.59 483.01 2781.44 480.473C2785.3 477.834 2788.29 474.231 2790.42 469.665C2792.56 465.098 2793.62 459.821 2793.62 453.833C2793.62 444.903 2791.24 437.748 2786.47 432.37C2781.8 426.991 2775.56 424.302 2767.74 424.302C2760.03 424.302 2753.79 426.991 2749.02 432.37C2744.25 437.748 2741.87 444.903 2741.87 453.833C2741.87 459.821 2742.93 465.098 2745.06 469.665C2747.19 474.231 2750.19 477.834 2754.04 480.473C2758 483.01 2762.57 484.278 2767.74 484.278ZM2824.37 493.107V415.473H2835.79V435.262H2836.55V493.107H2824.37ZM2836.55 452.616L2834.57 434.196C2836.39 427.6 2839.64 422.576 2844.31 419.126C2848.98 415.676 2854.36 413.95 2860.45 413.95C2862.98 413.95 2864.71 414.153 2865.62 414.559V426.281C2865.11 426.078 2864.4 425.976 2863.49 425.976C2862.58 425.875 2861.46 425.824 2860.14 425.824C2852.43 425.824 2846.54 428.158 2842.48 432.826C2838.53 437.393 2836.55 443.989 2836.55 452.616ZM2881.45 493.107V415.473H2892.87V433.74H2893.63V493.107H2881.45ZM2933.82 493.107V441.655C2933.82 435.769 2932.5 431.456 2929.86 428.716C2927.22 425.976 2923.42 424.606 2918.44 424.606C2913.78 424.606 2909.56 425.722 2905.81 427.955C2902.05 430.188 2899.06 433.283 2896.83 437.241C2894.7 441.199 2893.63 445.816 2893.63 451.093L2891.65 432.674C2894.29 426.889 2898.25 422.323 2903.53 418.974C2908.8 415.625 2914.54 413.95 2920.73 413.95C2928.24 413.95 2934.33 416.183 2938.99 420.648C2943.66 425.012 2946 430.949 2946 438.459V493.107H2933.82ZM2986.18 493.107V441.655C2986.18 435.769 2984.86 431.456 2982.23 428.716C2979.59 425.976 2975.78 424.606 2970.81 424.606C2966.14 424.606 2961.93 425.722 2958.17 427.955C2954.42 430.188 2951.43 433.283 2949.19 437.241C2947.06 441.199 2946 445.816 2946 451.093L2942.95 432.674C2945.59 426.889 2949.65 422.323 2955.13 418.974C2960.61 415.625 2966.5 413.95 2972.79 413.95C2980.3 413.95 2986.44 416.183 2991.21 420.648C2995.98 425.012 2998.36 430.949 2998.36 438.459V493.107H2986.18ZM3068.99 493.107C3068.58 491.382 3068.28 489.403 3068.07 487.171C3067.97 484.938 3067.92 482.096 3067.92 478.646H3067.16V441.503C3067.16 435.617 3065.79 431.304 3063.05 428.564C3060.41 425.722 3056.1 424.302 3050.11 424.302C3044.22 424.302 3039.51 425.519 3035.95 427.955C3032.5 430.289 3030.57 433.638 3030.17 438.002H3018.45C3018.96 430.492 3022.1 424.606 3027.89 420.344C3033.67 416.081 3041.23 413.95 3050.57 413.95C3060.21 413.95 3067.36 416.234 3072.03 420.8C3076.7 425.367 3079.03 432.217 3079.03 441.351V478.646C3079.03 480.879 3079.19 483.213 3079.49 485.648C3079.79 487.983 3080.2 490.469 3080.71 493.107H3068.99ZM3042.35 494.63C3034.33 494.63 3027.94 492.701 3023.17 488.845C3018.5 484.887 3016.16 479.509 3016.16 472.709C3016.16 465.91 3018.5 460.633 3023.17 456.878C3027.83 453.123 3034.63 450.484 3043.56 448.962L3070.66 444.395V454.442L3045.39 458.4C3039.71 459.313 3035.4 460.836 3032.45 462.967C3029.51 465.098 3028.04 468.193 3028.04 472.253C3028.04 476.21 3029.36 479.204 3032 481.234C3034.74 483.264 3038.74 484.278 3044.02 484.278C3050.82 484.278 3056.35 482.756 3060.61 479.712C3064.98 476.566 3067.16 472.506 3067.16 467.534L3069.14 478.342C3067.51 483.517 3064.32 487.526 3059.55 490.367C3054.88 493.209 3049.15 494.63 3042.35 494.63ZM3102.51 493.107V415.473H3113.92V433.74H3114.68V493.107H3102.51ZM3158.07 493.107V442.264C3158.07 436.378 3156.6 431.964 3153.65 429.021C3150.71 426.078 3146.35 424.606 3140.56 424.606C3135.49 424.606 3130.97 425.722 3127.02 427.955C3123.16 430.188 3120.11 433.283 3117.88 437.241C3115.75 441.199 3114.68 445.816 3114.68 451.093L3112.71 432.674C3115.34 426.889 3119.35 422.323 3124.73 418.974C3130.21 415.625 3136.4 413.95 3143.3 413.95C3151.42 413.95 3157.92 416.284 3162.79 420.953C3167.76 425.519 3170.25 431.558 3170.25 439.067V493.107H3158.07ZM3224.38 494.63C3217.28 494.63 3210.94 492.904 3205.36 489.454C3199.88 485.902 3195.51 481.082 3192.26 474.993C3189.12 468.802 3187.54 461.8 3187.54 453.986C3187.54 446.171 3189.12 439.27 3192.26 433.283C3195.51 427.295 3199.88 422.576 3205.36 419.126C3210.94 415.676 3217.23 413.95 3224.23 413.95C3230.02 413.95 3235.19 415.067 3239.76 417.299C3244.43 419.532 3248.23 422.729 3251.18 426.889C3254.22 430.949 3256.15 435.719 3256.96 441.199H3245.69C3244.68 436.226 3242.35 432.167 3238.69 429.021C3235.04 425.875 3230.32 424.302 3224.54 424.302C3219.56 424.302 3215.25 425.519 3211.6 427.955C3207.94 430.391 3205.1 433.841 3203.07 438.306C3201.04 442.772 3200.03 447.998 3200.03 453.986C3200.03 459.973 3201.04 465.25 3203.07 469.817C3205.1 474.384 3207.94 477.936 3211.6 480.473C3215.35 483.01 3219.72 484.278 3224.69 484.278C3230.27 484.278 3234.94 482.756 3238.69 479.712C3242.45 476.566 3244.83 472.506 3245.85 467.534H3257.11C3256.2 472.912 3254.17 477.682 3251.02 481.843C3247.98 485.902 3244.17 489.048 3239.61 491.281C3235.04 493.513 3229.96 494.63 3224.38 494.63ZM3306.32 494.63C3298.91 494.63 3292.36 492.904 3286.68 489.454C3281 485.902 3276.53 481.082 3273.29 474.993C3270.04 468.904 3268.41 461.901 3268.41 453.986C3268.41 446.07 3269.99 439.118 3273.13 433.131C3276.38 427.042 3280.9 422.323 3286.68 418.974C3292.47 415.625 3299.11 413.95 3306.62 413.95C3313.83 413.95 3320.07 415.523 3325.35 418.669C3330.73 421.815 3334.84 426.23 3337.68 431.913C3340.62 437.596 3342.09 444.294 3342.09 452.007C3342.09 453.021 3342.04 453.986 3341.94 454.899C3341.94 455.812 3341.84 456.827 3341.63 457.943H3277.55V447.744H3334.18L3330.22 453.377C3330.22 444.04 3328.14 436.886 3323.98 431.913C3319.92 426.839 3314.13 424.302 3306.62 424.302C3298.91 424.302 3292.67 426.991 3287.9 432.37C3283.23 437.647 3280.9 444.801 3280.9 453.833C3280.9 463.068 3283.23 470.477 3287.9 476.058C3292.67 481.538 3299.01 484.278 3306.93 484.278C3311.9 484.278 3316.26 483.213 3320.02 481.082C3323.77 478.849 3326.51 475.703 3328.24 471.644H3339.81C3337.27 478.748 3333.01 484.38 3327.02 488.541C3321.14 492.6 3314.23 494.63 3306.32 494.63ZM3399.27 493.107V482.147H3428.65C3437.79 482.147 3445.65 480.321 3452.25 476.667C3458.85 472.912 3463.92 467.686 3467.47 460.988C3471.02 454.29 3472.8 446.527 3472.8 437.697C3472.8 428.97 3471.02 421.359 3467.47 414.864C3463.92 408.369 3458.85 403.345 3452.25 399.793C3445.75 396.241 3437.89 394.465 3428.65 394.465H3399.27V383.505H3428.65C3440.12 383.505 3450.12 385.789 3458.64 390.355C3467.17 394.821 3473.76 401.163 3478.43 409.384C3483.2 417.502 3485.59 427.042 3485.59 438.002C3485.59 448.962 3483.2 458.603 3478.43 466.925C3473.66 475.145 3467.01 481.589 3458.49 486.257C3450.07 490.824 3440.17 493.107 3428.81 493.107H3399.27ZM3391.82 493.107V383.505H3404.3V493.107H3391.82ZM3505.37 493.107V415.473H3516.79V435.262H3517.55V493.107H3505.37ZM3517.55 452.616L3515.57 434.196C3517.39 427.6 3520.64 422.576 3525.31 419.126C3529.98 415.676 3535.36 413.95 3541.45 413.95C3543.98 413.95 3545.71 414.153 3546.62 414.559V426.281C3546.11 426.078 3545.4 425.976 3544.49 425.976C3543.58 425.875 3542.46 425.824 3541.14 425.824C3533.43 425.824 3527.54 428.158 3523.48 432.826C3519.53 437.393 3517.55 443.989 3517.55 452.616ZM3561.12 493.107V415.473H3573.29V493.107H3561.12ZM3560.2 397.814V383.505H3574.21V397.814H3560.2ZM3619.33 493.107L3587.21 415.473H3600.3L3627.09 484.887H3622.22L3648.86 415.473H3661.34L3629.22 493.107H3619.33ZM3706.21 494.63C3698.8 494.63 3692.25 492.904 3686.57 489.454C3680.89 485.902 3676.42 481.082 3673.17 474.993C3669.93 468.904 3668.3 461.901 3668.3 453.986C3668.3 446.07 3669.88 439.118 3673.02 433.131C3676.27 427.042 3680.79 422.323 3686.57 418.974C3692.35 415.625 3699 413.95 3706.51 413.95C3713.72 413.95 3719.96 415.523 3725.24 418.669C3730.61 421.815 3734.72 426.23 3737.57 431.913C3740.51 437.596 3741.98 444.294 3741.98 452.007C3741.98 453.021 3741.93 453.986 3741.83 454.899C3741.83 455.812 3741.73 456.827 3741.52 457.943H3677.44V447.744H3734.06L3730.11 453.377C3730.11 444.04 3728.03 436.886 3723.87 431.913C3719.81 426.839 3714.02 424.302 3706.51 424.302C3698.8 424.302 3692.56 426.991 3687.79 432.37C3683.12 437.647 3680.79 444.801 3680.79 453.833C3680.79 463.068 3683.12 470.477 3687.79 476.058C3692.56 481.538 3698.9 484.278 3706.82 484.278C3711.79 484.278 3716.15 483.213 3719.91 481.082C3723.66 478.849 3726.4 475.703 3728.13 471.644H3739.7C3737.16 478.748 3732.9 484.38 3726.91 488.541C3721.02 492.6 3714.12 494.63 3706.21 494.63ZM3760.32 493.107V415.473H3771.73V433.74H3772.49V493.107H3760.32ZM3815.88 493.107V442.264C3815.88 436.378 3814.41 431.964 3811.46 429.021C3808.52 426.078 3804.16 424.606 3798.37 424.606C3793.3 424.606 3788.78 425.722 3784.82 427.955C3780.97 430.188 3777.92 433.283 3775.69 437.241C3773.56 441.199 3772.49 445.816 3772.49 451.093L3770.52 432.674C3773.15 426.889 3777.16 422.323 3782.54 418.974C3788.02 415.625 3794.21 413.95 3801.11 413.95C3809.23 413.95 3815.73 416.284 3820.6 420.953C3825.57 425.519 3828.06 431.558 3828.06 439.067V493.107H3815.88ZM3844.89 493.107V477.428H3860.57V493.107H3844.89Z" fill="black"/>
</svg>
